<svg xmlns="http://www.w3.org/2000/svg" viewBox="0 0 32 32" width="32" height="32">
  <defs>
    <linearGradient id="diceGradient" x1="0%" y1="0%" x2="100%" y2="100%">
      <stop offset="0%" style="stop-color:#3B82F6;stop-opacity:1" />
      <stop offset="100%" style="stop-color:#1E40AF;stop-opacity:1" />
    </linearGradient>
  </defs>
  
  <!-- Dé principal -->
  <rect x="4" y="4" width="20" height="20" rx="3" ry="3" 
        fill="url(#diceGradient)" stroke="#1E40AF" stroke-width="1"/>
  
  <!-- Points du dé (configuration 6) -->
  <circle cx="9" cy="9" r="1.5" fill="white"/>
  <circle cx="15" cy="9" r="1.5" fill="white"/>
  <circle cx="9" cy="14" r="1.5" fill="white"/>
  <circle cx="15" cy="14" r="1.5" fill="white"/>
  <circle cx="9" cy="19" r="1.5" fill="white"/>
  <circle cx="15" cy="19" r="1.5" fill="white"/>
  
  <!-- Reflet pour effet 3D -->
  <path d="M7 7 L18 7 Q20 7 20 9 L20 12 Q7 9 7 7 Z" fill="rgba(255,255,255,0.3)"/>
  
  <!-- Papier/Document en arrière-plan -->
  <rect x="25" y="10" width="6" height="8" rx="1" ry="1" 
        fill="white" stroke="#E5E7EB" stroke-width="0.5" opacity="0.9"/>
  <line x1="26.5" y1="12" x2="29.5" y2="12" stroke="#9CA3AF" stroke-width="0.3"/>
  <line x1="26.5" y1="13.5" x2="29.5" y2="13.5" stroke="#9CA3AF" stroke-width="0.3"/>
  <line x1="26.5" y1="15" x2="28.5" y2="15" stroke="#9CA3AF" stroke-width="0.3"/>
</svg>